<?xml version="1.0" standalone="no"?><!DOCTYPE svg PUBLIC "-//W3C//DTD SVG 1.1//EN" "http://www.w3.org/Graphics/SVG/1.1/DTD/svg11.dtd"><svg t="1562328086380" class="icon" viewBox="0 0 1024 1024" version="1.1" xmlns="http://www.w3.org/2000/svg" p-id="22947" xmlns:xlink="http://www.w3.org/1999/xlink" width="200" height="200"><defs><style type="text/css"></style></defs><path d="M65.344 399.168l0 624.256 880 0L945.344 399.168 65.344 399.168zM896 976.448 114.688 976.448 114.688 446.208 896 446.208 896 976.448z" p-id="22948" fill="#ffa144"></path><path d="M245.888 446.208 245.888 305.152c0-143.296 116.16-259.456 259.456-259.456 143.296 0 259.456 116.16 259.456 259.456l0 140.992 43.328 0c0.192-3.904 1.856-7.296 1.856-11.264L809.984 305.152c0-168.256-136.384-304.64-304.64-304.64s-304.64 136.384-304.64 304.64l0 129.728c0 3.968 1.6 7.36 1.856 11.264L245.888 446.144z" p-id="22949" fill="#ffa144"></path><path d="M471.488 592.832l67.712 0 0 236.928-67.712 0 0-236.928Z" p-id="22950" fill="#ffa144"></path></svg>