<?xml version="1.0" standalone="no"?><!DOCTYPE svg PUBLIC "-//W3C//DTD SVG 1.1//EN" "http://www.w3.org/Graphics/SVG/1.1/DTD/svg11.dtd"><svg t="1562327713544" class="icon" viewBox="0 0 1024 1024" version="1.1" xmlns="http://www.w3.org/2000/svg" p-id="18291" xmlns:xlink="http://www.w3.org/1999/xlink" width="200" height="200"><defs><style type="text/css"></style></defs><path d="M945.619753 883.674074H78.380247c-39.822222 0-72.059259-32.237037-72.059259-72.059259V184.57284c0-39.822222 32.237037-72.059259 72.059259-72.05926h866.607407c39.822222 0 72.059259 32.237037 72.05926 72.05926v627.041975c0.632099 39.822222-31.604938 72.059259-71.427161 72.059259zM78.380247 160.553086c-13.274074 0-24.019753 10.745679-24.019753 24.019754v627.041975c0 13.274074 10.745679 24.019753 24.019753 24.019753h866.607407c13.274074 0 24.019753-10.745679 24.019753-24.019753V184.57284c0-13.274074-10.745679-24.019753-24.019753-24.019754H78.380247z" fill="#ffa144" p-id="18292"></path><path d="M514.528395 538.548148c-5.05679 0-10.745679-1.896296-14.538272-5.05679L36.02963 171.298765c-10.745679-8.217284-12.641975-23.387654-4.424692-33.501234 8.217284-10.745679 23.387654-12.641975 33.501235-4.424691l448.790123 350.814814 316.049383-246.518518c10.745679-8.217284 25.283951-6.320988 33.501235 4.424691 8.217284 10.745679 6.320988 25.916049-4.424692 33.501235L529.698765 533.491358c-4.424691 3.792593-10.11358 5.05679-15.17037 5.05679z" fill="#ffa144" p-id="18293"></path></svg>