<?xml version="1.0" standalone="no"?><!DOCTYPE svg PUBLIC "-//W3C//DTD SVG 1.1//EN" "http://www.w3.org/Graphics/SVG/1.1/DTD/svg11.dtd"><svg t="1562322894521" class="icon" viewBox="0 0 1408 1024" version="1.1" xmlns="http://www.w3.org/2000/svg" p-id="3511" xmlns:xlink="http://www.w3.org/1999/xlink" width="275" height="200"><defs><style type="text/css"></style></defs><path d="M1280 448a64 64 0 0 1 128 0v384a192 192 0 0 1-192 192H192a192 192 0 0 1-192-192V192a192 192 0 0 1 192-192h1024a192 192 0 0 1 192 192 64 64 0 0 1-128 0 64 64 0 0 0-64-64H192a64 64 0 0 0-64 64v640a64 64 0 0 0 64 64h1024a64 64 0 0 0 64-64V448z" fill="#8a8a8a" p-id="3512"></path><path d="M704 576a192 192 0 1 1 0-384 192 192 0 0 1 0 384z m0-128a64 64 0 1 0 0-128 64 64 0 0 0 0 128z" fill="#8a8a8a" p-id="3513"></path><path d="M960 768a64 64 0 0 1-128 0 128 128 0 1 0-256 0 64 64 0 0 1-128 0 256 256 0 1 1 512 0z" fill="#8a8a8a" p-id="3514"></path></svg>