<?xml version="1.0" standalone="no"?><!DOCTYPE svg PUBLIC "-//W3C//DTD SVG 1.1//EN" "http://www.w3.org/Graphics/SVG/1.1/DTD/svg11.dtd"><svg t="1562302907743" class="icon" viewBox="0 0 1025 1024" version="1.1" xmlns="http://www.w3.org/2000/svg" p-id="2272" xmlns:xlink="http://www.w3.org/1999/xlink" width="200.1953125" height="200"><defs><style type="text/css"></style></defs><path d="M1024.000172 185.153024l-60.733828-60.736824-482.304799 482.302801-224.000499-223.9995-60.735826 60.800749 223.935576 223.9995 60.800749 60.736824 60.736824-60.736824 482.301803-482.366726z" fill="#4DA934" p-id="2273"></path><path d="M933.057745 446.656574c3.327101 21.311026 4.990152 43.136449 4.990152 65.343426 0 234.942677-191.10405 426.046726-426.046726 426.046726-234.943675 0-426.047725-191.10405-426.047726-426.046726 0-234.943675 191.10405-426.112649 426.047726-426.112649 90.624799 0 174.718252 28.544549 243.903175 77.0557l61.760625-61.760624C732.289021 37.632899 626.56192 0 512.001171 0 229.248521 0 0.001171 229.247351 0.001171 512c0 282.752649 229.247351 511.999001 512 511.999001 282.752649 0 511.999001-229.246352 511.999001-511.999001 0-47.6162-6.655201-93.633274-18.81595-137.407975L933.057745 446.656574z" fill="#4DA934" p-id="2274"></path></svg>