<?xml version="1.0" standalone="no"?><!DOCTYPE svg PUBLIC "-//W3C//DTD SVG 1.1//EN" "http://www.w3.org/Graphics/SVG/1.1/DTD/svg11.dtd"><svg t="1562328234124" class="icon" viewBox="0 0 1024 1024" version="1.1" xmlns="http://www.w3.org/2000/svg" p-id="25278" xmlns:xlink="http://www.w3.org/1999/xlink" width="200" height="200"><defs><style type="text/css"></style></defs><path d="M511.936 1024c-153.984 0-440.448-229.504-440.448-446.528V163.136c0-10.048 8.448-18.112 18.88-18.368l24.96-0.384c0.896 0 98.752-1.984 199.552-41.92C418.368 61.632 485.12 14.528 485.76 14.016l14.72-10.368a19.84 19.84 0 0 1 22.72-0.064l14.976 10.496c0.64 0.448 67.456 47.488 170.816 88.384a639.168 639.168 0 0 0 199.68 41.92l24.768 0.448c10.432 0.192 18.88 8.32 18.88 18.368l0.192 414.272c0 217.024-286.528 446.528-440.64 446.528zM904.96 194.56a748.096 748.096 0 0 1-211.264-47.872A1064.448 1064.448 0 0 1 511.936 54.4c-26.944 17.472-92.608 57.152-181.76 92.416-87.168 34.496-170.88 44.8-211.392 47.872v386.112c0 179.584 263.232 399.04 393.152 399.04 50.304 0 148.48-40.832 244.864-130.56 92.928-86.4 148.48-186.752 148.48-268.416L904.96 194.56z" p-id="25279" fill="#ffa144"></path><path d="M655.232 383.296a23.68 23.68 0 1 1 33.536 33.472l-224 224a23.68 23.68 0 0 1-33.536 0l-96-96a23.68 23.68 0 1 1 33.536-33.472L448 590.528l207.232-207.232z" p-id="25280" fill="#ffa144"></path></svg>