<?xml version="1.0" standalone="no"?><!DOCTYPE svg PUBLIC "-//W3C//DTD SVG 1.1//EN" "http://www.w3.org/Graphics/SVG/1.1/DTD/svg11.dtd"><svg t="1576568483799" class="icon" viewBox="0 0 1024 1024" version="1.1" xmlns="http://www.w3.org/2000/svg" p-id="6012" xmlns:xlink="http://www.w3.org/1999/xlink" width="200" height="200"><defs><style type="text/css"></style></defs><path d="M721.454545 989.090909H302.545455a162.909091 162.909091 0 0 1-162.909091-162.909091v-628.363636a23.272727 23.272727 0 0 1 23.272727-23.272727h698.181818a23.272727 23.272727 0 0 1 23.272727 23.272727v628.363636a162.909091 162.909091 0 0 1-162.909091 162.909091zM186.181818 221.090909v605.090909a116.363636 116.363636 0 0 0 116.363637 116.363637h418.90909a116.363636 116.363636 0 0 0 116.363637-116.363637v-605.090909z" fill="#ffffff" p-id="6013"></path><path d="M651.636364 221.090909H372.363636a23.272727 23.272727 0 0 1-23.272727-23.272727v-69.818182a93.090909 93.090909 0 0 1 93.090909-93.090909h139.636364a93.090909 93.090909 0 0 1 93.090909 93.090909v69.818182a23.272727 23.272727 0 0 1-23.272727 23.272727z m-256-46.545454h232.727272v-46.545455a46.545455 46.545455 0 0 0-46.545454-46.545455h-139.636364a46.545455 46.545455 0 0 0-46.545454 46.545455z" fill="#ffffff" p-id="6014"></path><path d="M23.272727 174.545455h977.454546v46.545454H23.272727zM488.727273 360.727273h46.545454v395.636363h-46.545454zM302.545455 407.272727h46.545454v302.545455h-46.545454zM651.636364 407.272727h46.545454v302.545455h-46.545454z" fill="#ffffff" p-id="6015"></path></svg>